<svg width="15" height="10" viewBox="0 0 15 10" fill="none" xmlns="http://www.w3.org/2000/svg">
<path fill-rule="evenodd" clip-rule="evenodd" d="M14.8374 5.00275C14.8374 4.87434 14.7767 4.75118 14.6685 4.66038C14.5603 4.56958 14.4135 4.51857 14.2605 4.51857L0.576145 4.52632C0.500384 4.5264 0.425384 4.53901 0.355428 4.56342C0.285473 4.58783 0.221931 4.62357 0.168432 4.66859C0.114932 4.71361 0.0725212 4.76703 0.043622 4.82581C0.0147228 4.88458 -9.91821e-05 4.94756 9.53674e-07 5.01114C0.000102043 5.07472 0.0151243 5.13767 0.0442104 5.19638C0.0732956 5.25509 0.115876 5.30842 0.169519 5.35332C0.223162 5.39822 0.286817 5.43381 0.35685 5.45807C0.426883 5.48232 0.501922 5.49476 0.577683 5.49468L14.2613 5.48693C14.4142 5.48676 14.5607 5.43567 14.6687 5.34489C14.7768 5.25411 14.8374 5.13105 14.8374 5.00275Z" fill="white"/>
<path fill-rule="evenodd" clip-rule="evenodd" d="M8.64065 0.1416C8.53251 0.232298 8.47169 0.355312 8.47155 0.48362C8.4714 0.611928 8.53195 0.735038 8.63988 0.825907L13.6075 5.00276L8.63988 9.17962C8.53484 9.27098 8.47676 9.3933 8.47815 9.52026C8.47953 9.64721 8.54027 9.76862 8.64729 9.85835C8.7543 9.94808 8.89903 9.99894 9.0503 9.99998C9.20156 10.001 9.34726 9.95217 9.45602 9.86392L14.8313 5.34492C14.9393 5.25413 15 5.13107 15 5.00276C15 4.87445 14.9393 4.75139 14.8313 4.66061L9.45602 0.1416C9.34785 0.0509288 9.20122 0 9.04834 0C8.89545 0 8.74882 0.0509288 8.64065 0.1416Z" fill="white"/>
</svg>
