<svg width="201" height="42" viewBox="0 0 201 42" fill="none" xmlns="http://www.w3.org/2000/svg">
<path d="M23.268 7.89879L11.634 15.7986L23.268 23.6974L11.634 31.6033L0 23.6314L11.633 15.7326L0 7.89879L11.633 0L23.268 7.89879ZM11.5721 34.0982L23.2051 26.2014L34.8381 34.1002L23.2051 42L11.5721 34.0982ZM23.268 23.6314L34.901 15.7326L23.268 7.89879L34.8391 0L46.4721 7.89879L34.8391 15.7986L46.4721 23.6974L34.8391 31.6033L23.268 23.6314Z" fill="#2D4EAB"/>
<path d="M55.5717 7.98304H64.9777C70.9805 7.98304 75.9307 11.6594 75.9307 20.0616V21.8338C75.9307 30.3031 71.289 34.1104 65.1635 34.1104H55.5686L55.5717 7.98304ZM60.8314 12.7099V29.3175H64.8529C68.2562 29.3175 70.5461 26.9535 70.5461 21.7049V20.3245C70.5461 15.0729 68.1324 12.712 64.6671 12.712L60.8314 12.7099ZM78.7118 12.9728H82.92L83.6001 17.8926C84.405 14.543 86.4421 12.7729 90.159 12.7729H91.4542V18.4122H89.2922C85.0231 18.4122 83.9705 19.9875 83.9705 24.4515V34.1712H78.7768V12.9688L78.7118 12.9728ZM92.5159 24.0009V23.4081C92.5159 16.3183 96.785 12.446 102.603 12.446C108.544 12.446 112.69 16.3193 112.69 23.4081V23.9988C112.69 30.9587 108.669 34.698 102.603 34.698C96.1709 34.6361 92.5189 30.9588 92.5189 24.0009H92.5159ZM107.367 23.9349V23.4081C107.367 19.4689 105.514 17.1059 102.541 17.1059C99.6352 17.1059 97.7178 19.274 97.7178 23.4081V23.9339C97.7178 27.7412 99.5712 29.9072 102.544 29.9072C105.514 29.8433 107.371 27.7422 107.371 23.9349H107.367ZM115.412 12.9728H119.744L120.24 16.977C120.706 15.6206 121.595 14.4491 122.775 13.634C123.955 12.8189 125.365 12.4029 126.799 12.447C131.874 12.447 135.214 16.3203 135.214 23.4751V24.0658C135.214 31.0257 131.502 34.7011 126.799 34.7011C125.459 34.7852 124.127 34.4514 122.985 33.7458C121.844 33.0402 120.949 31.9975 120.426 30.7618V41.4621H115.351L115.412 12.9728ZM129.954 23.9349V23.4751C129.954 19.275 127.913 17.1729 125.191 17.1729C122.282 17.1729 120.364 19.5369 120.364 23.4751V23.8689C120.364 27.6102 122.217 29.9742 125.134 29.9742C128.106 29.9092 129.962 27.8741 129.962 23.9349H129.954ZM142.889 30.2371L142.452 34.1104H137.996V5.88197H143.071V16.7141C143.553 15.4003 144.445 14.2765 145.615 13.5087C146.785 12.741 148.171 12.3702 149.567 12.4511C154.338 12.5171 157.86 15.9955 157.86 23.0204V23.6771C157.86 30.7009 154.519 34.7051 149.445 34.7051C148.016 34.768 146.606 34.367 145.424 33.562C144.243 32.757 143.353 31.5914 142.889 30.2391V30.2371ZM152.542 23.672V23.1432C152.542 19.2699 150.561 17.1039 147.772 17.1039C144.93 17.1039 142.946 19.5328 142.946 23.2092V23.669C142.946 27.6072 144.864 29.9082 147.716 29.9082C150.749 29.9082 152.544 27.8711 152.544 23.669L152.542 23.672ZM160.091 24.0009V23.4081C160.091 16.3183 164.359 12.446 170.177 12.446C176.117 12.446 180.263 16.3193 180.263 23.4081V23.9988C180.263 30.9587 176.179 34.698 170.177 34.698C163.745 34.6361 160.093 30.9588 160.093 24.0009H160.091ZM175.004 23.9349V23.4081C175.004 19.4689 173.15 17.1059 170.177 17.1059C167.269 17.1059 165.351 19.272 165.351 23.4081V23.9339C165.351 27.7412 167.204 29.9072 170.177 29.9072C173.149 29.8433 175.007 27.7422 175.007 23.9349H175.004ZM187.068 23.1432L180.074 12.9677H186.076L190.098 19.3359L194.182 12.9677H200.122L193.006 23.0772L200.492 34.1053H194.615L190.036 27.0814L185.588 34.1053H179.461L187.068 23.1432Z" fill="black"/>
</svg>
