<svg width="18" height="14" viewBox="0 0 18 14" fill="none" xmlns="http://www.w3.org/2000/svg">
<path d="M16.4181 0H1.58207C1.15824 0.00474951 0.753614 0.177477 0.457012 0.480267C0.16041 0.783056 -0.00392891 1.19116 7.13548e-05 1.615V12.385C-0.00392891 12.8088 0.16041 13.2169 0.457012 13.5197C0.753614 13.8225 1.15824 13.9953 1.58207 14H16.4181C16.8419 13.9953 17.2465 13.8225 17.5431 13.5197C17.8397 13.2169 18.0041 12.8088 18.0001 12.385V1.615C18.0041 1.19116 17.8397 0.783056 17.5431 0.480267C17.2465 0.177477 16.8419 0.00474951 16.4181 0ZM16.2001 1.077L9.03407 8.394L1.80607 1.077H16.2001ZM1.05507 12.162V1.833L6.13407 6.975L1.05507 12.162ZM1.80107 12.923L6.88407 7.733L8.66507 9.533C8.71351 9.58259 8.77137 9.62199 8.83525 9.6489C8.89913 9.6758 8.96775 9.68966 9.03707 9.68966C9.10639 9.68966 9.17501 9.6758 9.23889 9.6489C9.30278 9.62199 9.36064 9.58259 9.40907 9.533L11.1451 7.76L16.2001 12.923H1.80107ZM16.9461 12.162L11.8901 7L16.9451 1.838L16.9461 12.162Z" fill="white"/>
</svg>
