<svg width="19" height="19" viewBox="0 0 19 19" fill="none" xmlns="http://www.w3.org/2000/svg">
<path d="M13.062 0H5.937C4.36249 0.000265136 2.85255 0.625854 1.7392 1.7392C0.625854 2.85255 0.000265136 4.36249 0 5.937L0 13.062C-2.23297e-08 14.6367 0.625472 16.1469 1.73885 17.2604C2.85222 18.374 4.36232 18.9997 5.937 19H13.062C14.6369 19 16.1472 18.3744 17.2608 17.2608C18.3744 16.1472 19 14.6369 19 13.062V5.937C18.9997 4.36232 18.374 2.85222 17.2604 1.73885C16.1469 0.625472 14.6367 -2.23297e-08 13.062 0ZM17.218 13.062C17.2167 14.1638 16.7784 15.2202 15.9993 15.9993C15.2202 16.7784 14.1638 17.2167 13.062 17.218H5.937C4.83517 17.2167 3.77884 16.7784 2.99973 15.9993C2.22061 15.2202 1.78232 14.1638 1.781 13.062V5.937C1.78232 4.83517 2.22061 3.77884 2.99973 2.99973C3.77884 2.22061 4.83517 1.78232 5.937 1.781H13.062C14.1638 1.78232 15.2202 2.22061 15.9993 2.99973C16.7784 3.77884 17.2167 4.83517 17.218 5.937V13.062Z" fill="white"/>
<path d="M9.50025 4.65235C8.54158 4.65314 7.60466 4.93814 6.80794 5.47132C6.01121 6.00451 5.39046 6.76194 5.02414 7.64787C4.65782 8.53379 4.56238 9.50843 4.74989 10.4486C4.93741 11.3887 5.39945 12.2522 6.07761 12.9298C6.75578 13.6074 7.61962 14.0687 8.55993 14.2555C9.50024 14.4422 10.4748 14.346 11.3604 13.9789C12.246 13.6119 13.003 12.9905 13.5355 12.1933C14.068 11.3962 14.3523 10.459 14.3523 9.50034C14.3523 8.86336 14.2267 8.23262 13.9828 7.64417C13.739 7.05572 13.3815 6.52111 12.9309 6.07087C12.4803 5.62064 11.9454 5.26363 11.3567 5.02023C10.7681 4.77683 10.1372 4.65182 9.50025 4.65235ZM9.50025 12.5303C8.90097 12.5303 8.31516 12.3526 7.81688 12.0197C7.31859 11.6868 6.93023 11.2135 6.7009 10.6599C6.47156 10.1062 6.41156 9.49699 6.52847 8.90922C6.64539 8.32146 6.93397 7.78157 7.35772 7.35781C7.78147 6.93406 8.32137 6.64548 8.90913 6.52857C9.49689 6.41165 10.1061 6.47166 10.6598 6.70099C11.2134 6.93032 11.6867 7.31869 12.0196 7.81697C12.3525 8.31525 12.5303 8.90107 12.5303 9.50034C12.5292 10.3036 12.2096 11.0737 11.6416 11.6417C11.0736 12.2097 10.3035 12.5293 9.50025 12.5303Z" fill="white"/>
<path d="M14.604 5.043C14.9608 5.043 15.25 4.75378 15.25 4.397C15.25 4.04022 14.9608 3.751 14.604 3.751C14.2472 3.751 13.958 4.04022 13.958 4.397C13.958 4.75378 14.2472 5.043 14.604 5.043Z" fill="white"/>
</svg>
