<svg width="19" height="19" viewBox="0 0 19 19" fill="none" xmlns="http://www.w3.org/2000/svg">
<path d="M0 19H4.249V5.938H0V19ZM15.822 6.091C15.777 6.077 15.734 6.061 15.687 6.048C15.64 6.035 15.573 6.024 15.515 6.015C15.2642 5.96385 15.0089 5.93805 14.753 5.938C13.8514 5.97775 12.971 6.22379 12.1794 6.6572C11.3878 7.09061 10.7062 7.69984 10.187 8.438V5.938H5.938V19H10.187V11.875C10.187 11.875 13.4 7.4 14.752 10.688V19H19V10.185C18.9981 9.24709 18.6851 8.33632 18.11 7.59543C17.5348 6.85454 16.7301 6.32542 15.822 6.091ZM2.078 4.156C2.48899 4.156 2.89075 4.03413 3.23248 3.80579C3.5742 3.57746 3.84054 3.25292 3.99782 2.87322C4.1551 2.49351 4.19625 2.0757 4.11607 1.6726C4.03589 1.26951 3.83798 0.899247 3.54737 0.608633C3.25675 0.31802 2.88649 0.120109 2.4834 0.0399291C2.08031 -0.040251 1.66249 0.000900373 1.28278 0.158179C0.903079 0.315458 0.57854 0.581801 0.350206 0.923526C0.121873 1.26525 0 1.66701 0 2.078C0 2.62912 0.218931 3.15767 0.608632 3.54737C0.998333 3.93707 1.52688 4.156 2.078 4.156Z" fill="white"/>
</svg>
