<svg width="12" height="14" viewBox="0 0 12 14" fill="none" xmlns="http://www.w3.org/2000/svg">
<path d="M10.2423 1.7189C9.10514 0.616492 7.58355 0 5.99977 0C4.41598 0 2.89439 0.616492 1.75727 1.7189C1.20132 2.25767 0.759288 2.90265 0.45742 3.61555C0.155552 4.32844 0 5.09473 0 5.8689C0 6.64308 0.155552 7.40936 0.45742 8.12226C0.759288 8.83516 1.20132 9.48014 1.75727 10.0189L5.70327 13.8789C5.78274 13.9559 5.88908 13.999 5.99977 13.999C6.11045 13.999 6.21679 13.9559 6.29627 13.8789L10.2423 10.0189C10.7982 9.48014 11.2402 8.83516 11.5421 8.12226C11.844 7.40936 11.9995 6.64308 11.9995 5.8689C11.9995 5.09473 11.844 4.32844 11.5421 3.61555C11.2402 2.90265 10.7982 2.25767 10.2423 1.7189ZM9.65127 9.4399L6.00127 13.0099L2.35127 9.4399C1.87372 8.97603 1.4941 8.42106 1.23487 7.80785C0.975636 7.19464 0.842068 6.53566 0.842068 5.8699C0.842068 5.20415 0.975636 4.54516 1.23487 3.93195C1.4941 3.31874 1.87372 2.76378 2.35127 2.2999C3.32949 1.35127 4.63861 0.820751 6.00127 0.820751C7.36392 0.820751 8.67305 1.35127 9.65127 2.2999C10.1288 2.76378 10.5084 3.31874 10.7677 3.93195C11.0269 4.54516 11.1605 5.20415 11.1605 5.8699C11.1605 6.53566 11.0269 7.19464 10.7677 7.80785C10.5084 8.42106 10.1288 8.97603 9.65127 9.4399Z" fill="white"/>
<path d="M7.91829 3.9789C7.47437 3.53515 6.89031 3.25907 6.26565 3.19767C5.64098 3.13628 5.01435 3.29338 4.49253 3.64221C3.97071 3.99105 3.586 4.51002 3.40394 5.11071C3.22187 5.7114 3.25371 6.35664 3.49405 6.93648C3.73439 7.51632 4.16835 7.99489 4.72199 8.29064C5.27562 8.58638 5.91468 8.68101 6.53026 8.5584C7.14585 8.43578 7.69987 8.10351 8.09794 7.61821C8.496 7.1329 8.71347 6.52458 8.71329 5.8969C8.7139 5.54056 8.64397 5.18762 8.50753 4.85843C8.37108 4.52924 8.17082 4.23032 7.91829 3.9789ZM7.31829 7.2119C7.01429 7.51613 6.61421 7.70553 6.18622 7.74785C5.75823 7.79017 5.32881 7.68279 4.97112 7.444C4.61343 7.20521 4.34959 6.84979 4.22457 6.43828C4.09955 6.02678 4.12108 5.58466 4.28548 5.18724C4.44989 4.78983 4.747 4.46171 5.12619 4.2588C5.50539 4.05589 5.94322 3.99072 6.36507 4.07442C6.78693 4.15812 7.16671 4.3855 7.43972 4.71781C7.71272 5.05013 7.86207 5.46682 7.86229 5.8969C7.86295 6.141 7.81521 6.38281 7.72184 6.60836C7.62846 6.8339 7.4913 7.03969 7.31829 7.2119Z" fill="white"/>
</svg>
