<svg width="23" height="23" viewBox="0 0 23 23" fill="none" xmlns="http://www.w3.org/2000/svg">
<path fill-rule="evenodd" clip-rule="evenodd" d="M13.0727 4.621C12.9335 4.621 12.7999 4.56569 12.7015 4.46723C12.603 4.36877 12.5477 4.23524 12.5477 4.096C12.5477 3.95676 12.603 3.82323 12.7015 3.72477C12.7999 3.62631 12.9335 3.571 13.0727 3.571C14.6024 3.57259 16.069 4.18104 17.1506 5.26281C18.2322 6.34458 18.8404 7.81128 18.8417 9.341C18.8417 9.48024 18.7864 9.61377 18.6879 9.71223C18.5895 9.81069 18.456 9.866 18.3167 9.866C18.1775 9.866 18.0439 9.81069 17.9455 9.71223C17.847 9.61377 17.7917 9.48024 17.7917 9.341C17.7901 8.08993 17.2924 6.89056 16.4078 6.00592C15.5232 5.12128 14.3238 4.62359 13.0727 4.622V4.621ZM22.4127 9.34C22.4098 6.86377 21.4248 4.4898 19.6739 2.73884C17.9229 0.987879 15.5489 0.00291119 13.0727 0C12.9335 0 12.7999 0.0553123 12.7015 0.153769C12.603 0.252226 12.5477 0.385761 12.5477 0.525C12.5477 0.664239 12.603 0.797774 12.7015 0.896231C12.7999 0.994688 12.9335 1.05 13.0727 1.05C15.2704 1.05291 17.3772 1.92729 18.9311 3.48136C20.4849 5.03544 21.3591 7.14234 21.3617 9.34C21.3617 9.47924 21.417 9.61277 21.5155 9.71123C21.6139 9.80969 21.7475 9.865 21.8867 9.865C22.026 9.865 22.1595 9.80969 22.2579 9.71123C22.3564 9.61277 22.4117 9.47924 22.4117 9.34H22.4127ZM21.0597 18.014L20.5457 18.529L15.9367 13.92L16.7967 13.06C16.8996 12.9575 17.039 12.8999 17.1842 12.8999C17.3295 12.8999 17.4688 12.9575 17.5717 13.06L21.0597 16.549C21.2537 16.7434 21.3627 17.0068 21.3627 17.2815C21.3627 17.5562 21.2537 17.8196 21.0597 18.014ZM18.3087 20.764L19.8007 19.272L15.1917 14.663L14.3187 15.537C14.0695 15.791 13.7419 15.9534 13.3888 15.9979C13.0358 16.0424 12.6781 15.9663 12.3737 15.782C11.1962 15.0845 10.1065 14.2485 9.12771 13.292C9.12412 13.2897 9.12106 13.2866 9.11871 13.283C8.16216 12.3042 7.32621 11.2145 6.62871 10.037C6.44425 9.73267 6.36807 9.37492 6.41255 9.02184C6.45702 8.66876 6.61954 8.34108 6.87371 8.092L7.74671 7.218L3.13971 2.61L1.64771 4.1C1.39782 4.34059 1.21674 4.64358 1.12321 4.97762C1.02968 5.31166 1.02709 5.66462 1.11571 6C1.95917 9.74105 3.80598 13.1816 6.45771 15.952C9.22745 18.6059 12.668 20.4548 16.4097 21.3C16.7451 21.3889 17.0981 21.3865 17.4322 21.293C17.7663 21.1994 18.0693 21.0182 18.3097 20.768L18.3087 20.764ZM5.13071 1.05C5.26665 1.04911 5.40142 1.07516 5.52723 1.12665C5.65305 1.17814 5.76741 1.25406 5.86371 1.35L9.35171 4.842C9.4026 4.89289 9.44297 4.9533 9.47051 5.01979C9.49805 5.08627 9.51223 5.15753 9.51223 5.2295C9.51223 5.30147 9.49805 5.37273 9.47051 5.43921C9.44297 5.5057 9.4026 5.56611 9.35171 5.617L8.49171 6.477L3.88271 1.868L4.40071 1.352C4.49687 1.25613 4.61106 1.18026 4.7367 1.12877C4.86234 1.07728 4.99693 1.05118 5.13271 1.052L5.13071 1.05ZM18.3137 12.318C18.0137 12.0185 17.6071 11.8502 17.1832 11.8502C16.7593 11.8502 16.3527 12.0185 16.0527 12.318L13.5767 14.794C13.4919 14.8821 13.3794 14.9386 13.2581 14.9538C13.1367 14.9691 13.0137 14.9424 12.9097 14.878C11.8057 14.2244 10.7838 13.4412 9.86571 12.545C8.96983 11.6265 8.18694 10.6043 7.53371 9.5C7.46947 9.39586 7.44287 9.27285 7.45834 9.15148C7.4738 9.0301 7.53041 8.9177 7.61871 8.833L10.0947 6.357C10.3939 6.05705 10.562 5.65068 10.562 5.227C10.562 4.80333 10.3939 4.39695 10.0947 4.097L6.60571 0.61C6.21413 0.219548 5.6837 0.000289018 5.13071 0.000289018C4.57773 0.000289018 4.0473 0.219548 3.65571 0.61L0.900714 3.361C0.524341 3.72967 0.251696 4.19096 0.110207 4.69846C-0.0312828 5.20597 -0.0366262 5.74178 0.0947139 6.252C0.982632 10.1785 2.92425 13.7886 5.71071 16.694L5.71771 16.701C8.62323 19.4871 12.2333 21.4284 16.1597 22.316C16.4065 22.3767 16.6596 22.4076 16.9137 22.408C17.3119 22.4077 17.706 22.3279 18.0729 22.1734C18.4399 22.0188 18.7723 21.7926 19.0507 21.508L21.8007 18.757C22.1914 18.3655 22.4108 17.8351 22.4108 17.282C22.4108 16.7289 22.1914 16.1985 21.8007 15.807L18.3137 12.318Z" fill="white"/>
</svg>
