<svg width="25" height="19" viewBox="0 0 25 19" fill="none" xmlns="http://www.w3.org/2000/svg">
<path d="M16.4186 8.36428L10.7626 5.26928C10.6044 5.18265 10.4264 5.1387 10.2461 5.14175C10.0657 5.1448 9.88929 5.19474 9.73411 5.28666C9.57892 5.37857 9.45035 5.5093 9.36101 5.66599C9.27168 5.82267 9.22467 5.99992 9.22461 6.18028V12.3173C9.22405 12.4972 9.27032 12.6742 9.35886 12.8308C9.4474 12.9874 9.57517 13.1183 9.72962 13.2106C9.88406 13.3029 10.0599 13.3535 10.2398 13.3573C10.4196 13.3611 10.5974 13.318 10.7556 13.2323L16.4116 10.1903C16.5764 10.1017 16.7143 9.97017 16.8106 9.80969C16.9068 9.64921 16.958 9.4657 16.9586 9.27856C16.9592 9.09142 16.9093 8.90758 16.8141 8.74648C16.7188 8.58537 16.5819 8.45298 16.4176 8.36328L16.4186 8.36428ZM10.7246 11.5453V6.95928L14.9516 9.27227L10.7246 11.5453Z" fill="white"/>
<path d="M24.815 4.484V4.473C24.7229 3.41999 24.3423 2.41276 23.715 1.562C23.0091 0.812899 22.0452 0.359701 21.018 0.294L20.893 0.279H20.849C17.545 0.033 12.553 0 12.5 0H12.491C12.441 0 7.45 0.033 4.115 0.274H4.071L3.957 0.293C2.92821 0.36337 1.96744 0.832272 1.279 1.6C0.674635 2.44302 0.298153 3.4278 0.186 4.459V4.485C0.176 4.568 0 6.568 0 8.576V10.453C0 12.461 0.176 14.461 0.184 14.545V14.558C0.279526 15.5995 0.660115 16.5946 1.284 17.434C2.01945 18.1899 3.01543 18.6369 4.069 18.684C4.169 18.696 4.258 18.706 4.318 18.716L4.376 18.724C6.284 18.906 12.267 18.996 12.521 19H12.536C12.586 19 17.577 18.967 20.882 18.726H20.926L21.066 18.71C22.0849 18.652 23.0395 18.1937 23.722 17.435C24.3264 16.592 24.7029 15.6072 24.815 14.576V14.55C24.822 14.466 24.999 12.466 24.999 10.458V8.576C24.999 6.568 24.822 4.568 24.815 4.484ZM23.534 10.453C23.534 12.312 23.372 14.226 23.357 14.401C23.2794 15.1264 23.0332 15.8237 22.638 16.437C22.4194 16.681 22.1534 16.8779 21.8561 17.0154C21.5587 17.153 21.2365 17.2284 20.909 17.237L20.753 17.255C17.553 17.487 12.753 17.523 12.532 17.524C12.284 17.524 6.388 17.43 4.538 17.257C4.443 17.241 4.338 17.23 4.233 17.217C3.53069 17.2058 2.85964 16.9247 2.359 16.432L2.345 16.417C1.94376 15.8156 1.70281 15.1217 1.645 14.401C1.633 14.268 1.467 12.332 1.467 10.447V8.576C1.467 6.72 1.628 4.808 1.644 4.628C1.71715 3.902 1.96262 3.20397 2.36 2.592C2.58386 2.34191 2.85535 2.13899 3.15858 1.9951C3.46182 1.85121 3.7907 1.76924 4.126 1.754L4.245 1.74C7.488 1.507 12.326 1.472 12.499 1.471C12.672 1.47 17.508 1.507 20.723 1.74L20.852 1.755C21.5333 1.78277 22.1769 2.07516 22.646 2.57L22.652 2.576C23.0553 3.18747 23.2962 3.89161 23.352 4.622C23.363 4.747 23.53 6.688 23.53 8.577L23.534 10.453Z" fill="white"/>
</svg>
